<?xml version="1.0" encoding="UTF-8"?>
<svg xmlns="http://www.w3.org/2000/svg" viewBox="0 0 488.32 123.26">
  <g id="_层_1" data-name="图层 1"/>
  <g id="_层_2" data-name="图层 2">
    <g id="logo">
      <g>
        <path d="M426.69,0c-34.04,0-61.63,27.59-61.63,61.63s27.59,61.63,61.63,61.63,61.63-27.59,61.63-61.63S460.73,0,426.69,0Zm0,98.61c-20.42,0-36.98-16.56-36.98-36.98s16.56-36.98,36.98-36.98,36.98,16.56,36.98,36.98-16.56,36.98-36.98,36.98Z"/>
        <g>
          <rect x="188.45" y="0" width="24.65" height="123.26"/>
          <polygon points="111.84 75.64 91.58 0 91.58 0 66.06 0 66.06 0 45.79 75.64 25.52 0 0 0 33.03 123.26 33.03 123.26 58.55 123.26 58.55 123.26 78.82 47.62 99.08 123.26 99.08 123.26 124.6 123.26 124.6 123.26 157.63 0 132.11 0 111.84 75.64"/>
          <polygon points="358.9 0 324.03 0 279.84 44.2 274.73 49.3 274.73 0 250.08 0 250.08 123.26 274.73 123.26 274.73 73.96 279.84 79.06 324.03 123.26 358.9 123.26 297.27 61.63 358.9 0"/>
        </g>
      </g>
    </g>
  </g>
</svg>