<?xml version="1.0" encoding="utf-8"?>
<!-- Generator: Adobe Illustrator 23.0.1, SVG Export Plug-In . SVG Version: 6.00 Build 0)  -->
<svg version="1.1" id="Layer_1" xmlns="http://www.w3.org/2000/svg" xmlns:xlink="http://www.w3.org/1999/xlink" x="0px" y="0px"
	 viewBox="0 0 512 512" style="enable-background:new 0 0 512 512;" xml:space="preserve">
<style type="text/css">
	.st0{fill:#1141A3;}
	.st1{fill:#FFFFFF;}
</style>
<path class="st0" d="M512,400V112C512,50.14,461.86,0,400,0H112C50.15,0,0.01,50.13,0,111.98v288.04C0.01,461.87,50.15,512,112,512
	h288C461.86,512,512,461.86,512,400z"/>
<g>
	<g>
		<path class="st1" d="M93.51,189.21c-37.24,91.85,7.03,196.51,98.88,233.75c21.45,8.7,44.39,13.16,67.54,13.15
			c99.17,0.01,179.58-80.37,179.6-179.54c0.01-99.17-80.37-179.58-179.54-179.6c-71.86-0.01-136.81,42.83-165.1,108.89
			 M159.34,390.57c-56.44-42.34-80.3-115.5-59.69-182.97l4.97,14.92c0.42,1.26,1.25,2.35,2.35,3.09l29.84,19.89l-6.81,6.81
			c-1.12,1.12-1.75,2.64-1.75,4.23v17.96c0,0.93,0.21,1.84,0.63,2.68l11.97,23.94c0.83,1.65,2.38,2.83,4.19,3.19l25.14,5.02v54.95
			c0,0.76,0.14,1.51,0.42,2.22l11.97,29.93c0.66,1.63,2,2.9,3.67,3.45l17.96,5.99c0.6,0.2,1.23,0.31,1.86,0.31
			c3.31,0,5.99-2.68,5.99-5.99v-26.94l21.55-16.16c1.51-1.13,2.39-2.9,2.39-4.79v-15.48l22.19-22.19c0.83-0.84,1.4-1.9,1.63-3.06
			l5.99-29.93c0.65-3.24-1.45-6.39-4.7-7.04c-0.39-0.08-0.78-0.12-1.17-0.12h-20.55l-16.22-27.03c-1.08-1.8-3.03-2.9-5.13-2.9h-38.2
			l-10.28-20.63c-0.86-1.72-2.5-2.93-4.4-3.23c-1.9-0.33-3.84,0.3-5.19,1.68l-7.77,7.74v-9.49c0-1.59-0.63-3.11-1.75-4.23
			l-10.22-10.22v-10.29l36.76-5.25c0.79-0.11,1.55-0.39,2.23-0.8l29.93-17.96c0.84-0.5,1.54-1.21,2.05-2.05l16.82-28.03l15.86-5.29
			c1.79-0.59,3.2-1.99,3.78-3.78l5.99-17.96c1.04-3.14-0.67-6.52-3.81-7.56c-0.29-0.1-0.59-0.17-0.89-0.22l-34.64-5.78l-6.09-4.06
			c37.67-12.26,78.46-10.74,115.12,4.28l-10.94,5.46h-22.53c-2.28-0.01-4.37,1.27-5.39,3.31l-11.97,23.94
			c-1.47,2.96-0.27,6.55,2.69,8.03c0.25,0.13,0.51,0.23,0.78,0.32l17.96,5.99c1.08,0.37,2.24,0.41,3.34,0.13l22.25-5.56l16.3,5.43
			c0.23,0.08,0.47,0.15,0.72,0.19l29.93,5.99c1.56,0.32,3.18,0,4.5-0.89l13.62-9.09c6.7,7.47,12.73,15.52,18,24.06l-29.45,9.82
			l-31.89-5.32l-10.53-15.8c-1.1-1.66-2.96-2.65-4.95-2.66h-35.91c-1.59,0-3.11,0.63-4.23,1.75l-17.96,17.96
			c-1.33,1.33-1.96,3.22-1.69,5.08l5.99,41.9c0.3,2.07,1.66,3.84,3.59,4.65l41.9,17.96c1.2,0.52,2.54,0.63,3.81,0.31l21.37-5.35
			l13.07,8.73v20.74c-0.01,0.93,0.19,1.84,0.6,2.68l23.34,46.62v22.53c0,1.59,0.63,3.11,1.75,4.23l12.52,12.53
			C338.39,431.12,233.36,446.11,159.34,390.57z"/>
	</g>
</g>
</svg>
